<?xml version="1.0" encoding="UTF-8"?>
<svg width="1000px" height="1413px" viewBox="0 0 1000 1413" version="1.1" xmlns="http://www.w3.org/2000/svg" xmlns:xlink="http://www.w3.org/1999/xlink">
    <!-- Generator: Sketch 51.2 (57519) - http://www.bohemiancoding.com/sketch -->
    <title>default_book_m@2x</title>
    <desc>Created with Sketch.</desc>
    <defs></defs>
    <g id="default_book_m" stroke="none" stroke-width="1" fill="none" fill-rule="evenodd">
        <g transform="translate(-213.000000, -7.000000)" fill-rule="nonzero">
            <rect id="Rectangle-path" fill="#F6F6F6" x="0" y="0" width="1426" height="1426"></rect>
            <rect id="Rectangle-17" fill="#F6F6F6" x="171" y="0" width="508" height="679"></rect>
            <rect id="Rectangle-18" fill="#F6F6F6" x="0" y="0" width="1426" height="1426"></rect>
            <g id="open-book" opacity="0.104966518" transform="translate(430.000000, 498.000000)" fill="#000000">
                <path d="M89.2997521,0 C89.2841331,0 89.2665614,0 89.2509423,0 C83.7665962,0 78.6083045,2.08741001 74.713228,5.88096792 C70.7751984,9.71646468 68.6060606,14.8234705 68.6060606,20.2602681 L68.6060606,324.059442 C68.6060606,335.199921 77.9249577,344.285397 89.3817544,344.313991 C137.680701,344.426464 218.600671,354.255401 274.424242,411.294118 L274.424242,93.3596509 C274.424242,89.5832494 273.436319,86.0356063 271.571758,83.0998877 C225.754335,11.0566009 137.708036,0.110566009 89.2997521,0 Z" id="Shape"></path>
                <path d="M505.969697,324.061349 L505.969697,20.2602681 C505.969697,14.8234705 503.800539,9.71646468 499.862471,5.88096792 C495.967358,2.08741001 490.805113,0 485.326572,0 C485.309001,0 485.291428,0 485.275809,0 C436.869018,0.11247232 348.821884,11.0585073 303.002075,83.101794 C301.137497,86.037512 300.151515,89.5851559 300.151515,93.3615574 L300.151515,411.294118 C355.975617,354.255401 436.896353,344.426464 485.195759,344.313991 C496.650711,344.285397 505.969697,335.199921 505.969697,324.061349 Z" id="Shape"></path>
                <path d="M545.671853,68.5490196 L530.929834,68.5490196 L530.929834,326.726916 C530.929834,355.63898 507.672796,379.214685 479.084068,379.286379 C438.942387,379.383263 372.754431,387.333547 325.878788,432.270193 C406.95033,412.164867 492.414251,425.234491 541.12069,436.476888 C547.202299,437.879766 553.486692,436.430383 558.359249,432.496901 C563.214588,428.573107 566,422.707762 566,416.412252 L566,89.1387656 C566.001912,77.7859214 556.880455,68.5490196 545.671853,68.5490196 Z" id="Shape"></path>
                <path d="M35.0704457,326.730034 L35.0704457,68.5490196 L20.3283088,68.5490196 C9.12152985,68.5490196 0,77.786033 0,89.1390141 L0,416.410641 C0,422.708164 2.78543361,428.571643 7.6408117,432.495485 C12.5095813,436.427077 18.7882854,437.882289 24.8795083,436.475519 C73.586335,425.231049 159.05285,412.163204 240.121212,432.268774 C193.247109,387.333523 127.058626,379.385079 86.9166246,379.288195 C58.3295815,379.218438 35.0704457,355.642448 35.0704457,326.730034 Z" id="Shape"></path>
            </g>
        </g>
    </g>
</svg>